<?xml version="1.0" encoding="UTF-8"?>
<svg id="Layer_1" xmlns="http://www.w3.org/2000/svg" viewBox="0 0 20 20">
  <g id="S2IconUsersNo20N-icon">
    <path d="M12.09,10.95c-2.28,0-4.13-1.95-4.13-4.34s1.85-4.34,4.13-4.34,4.13,1.95,4.13,4.34-1.85,4.34-4.13,4.34ZM12.09,3.77c-1.45,0-2.63,1.27-2.63,2.84s1.18,2.84,2.63,2.84,2.63-1.27,2.63-2.84-1.18-2.84-2.63-2.84Z" />
    <path d="M5.92,17.2s-.05,0-.08,0c-.41-.04-.71-.42-.67-.83.3-2.79,3.25-4.89,6.87-4.89.41,0,.75.34.75.75s-.34.75-.75.75c-2.8,0-5.16,1.56-5.38,3.55-.04.38-.37.67-.75.67Z" />
    <path d="M6.22,9.2c-.1,0-.21-.02-.31-.07-1.52-.68-2.5-2.25-2.5-3.99C3.41,2.75,5.26.8,7.53.8c.24,0,.48.02.72.06.41.07.68.46.61.87-.07.41-.46.68-.87.61-.15-.03-.3-.04-.45-.04-1.45,0-2.63,1.27-2.63,2.84,0,1.15.64,2.18,1.62,2.62.38.17.55.61.38.99-.12.28-.4.44-.68.44Z" />
    <path d="M1.41,15.7s-.05,0-.08,0c-.41-.04-.71-.41-.67-.83.29-2.67,3.01-4.73,6.46-4.88.38-.05.76.3.78.72.02.41-.3.76-.72.78-2.66.12-4.83,1.64-5.03,3.55-.04.38-.37.67-.75.67Z" />
    <path d="M15.89,12.31c-1.9,0-3.45,1.54-3.45,3.45s1.54,3.45,3.45,3.45,3.45-1.54,3.45-3.45-1.54-3.45-3.45-3.45ZM17.59,16.77c.19.19.19.49,0,.68-.09.09-.22.14-.34.14s-.25-.05-.34-.14l-1.01-1.01-1.01,1.01c-.09.09-.22.14-.34.14s-.25-.05-.34-.14c-.19-.19-.19-.49,0-.68l1.01-1.01-1.01-1.01c-.19-.19-.19-.49,0-.68.19-.19.49-.19.68,0l1.01,1.01,1.01-1.01c.19-.19.49-.19.68,0,.19.19.19.49,0,.68l-1.01,1.01,1.01,1.01Z" />
  </g>
</svg>
