<?xml version="1.0" encoding="UTF-8"?>
<svg width="20" height="20" viewBox="0 0 20 20" xmlns="http://www.w3.org/2000/svg">
  <g id="S2IconSwitch20N-icon">
    <path fill="currentColor" d="M18.5303 13.4697L15.5303 10.4697C15.2373 10.1768 14.7627 10.1768 14.4697 10.4697C14.1768 10.7627 14.1768 11.2373 14.4697 11.5303L16.1894 13.25H4C3.58594 13.25 3.25 13.5859 3.25 14C3.25 14.4141 3.58594 14.75 4 14.75H16.1894L14.4697 16.4697C14.1768 16.7627 14.1768 17.2373 14.4697 17.5303C14.6162 17.6768 14.8081 17.75 15 17.75C15.1919 17.75 15.3838 17.6768 15.5303 17.5303L18.5303 14.5303C18.8232 14.2373 18.8232 13.7627 18.5303 13.4697Z" />
    <path fill="currentColor" d="M16 5.25001H3.81055L5.53028 3.53028C5.82325 3.23731 5.82325 2.7627 5.53028 2.46973C5.23731 2.17676 4.7627 2.17676 4.46973 2.46973L1.46973 5.46973C1.17676 5.7627 1.17676 6.23731 1.46973 6.53028L4.46973 9.53028C4.61621 9.67676 4.80811 9.75001 5 9.75001C5.19189 9.75001 5.38379 9.67677 5.53027 9.53028C5.82324 9.23731 5.82324 8.7627 5.53027 8.46973L3.81054 6.75H16C16.414 6.75 16.75 6.41406 16.75 6C16.75 5.58594 16.4141 5.25001 16 5.25001Z" />
  </g>
</svg>
