<?xml version="1.0" encoding="UTF-8"?><svg id="Layer_1" xmlns="http://www.w3.org/2000/svg" viewBox="0 0 20 20">
  <g id="S2Help20N-icon">
    <path fill="currentColor" d="M9.99,15.53c-.23,0-.46-.07-.63-.23-.33-.37-.33-.92,0-1.29.17-.16.39-.24.63-.24.24,0,.47.08.63.25.16.17.25.39.24.63.01.23-.07.47-.23.64-.17.16-.41.25-.65.24Z" />
    <path fill="currentColor" d="M10,18.75c-4.83,0-8.75-3.92-8.75-8.75S5.17,1.25,10,1.25s8.75,3.92,8.75,8.75-3.92,8.75-8.75,8.75ZM10,2.75c-4,0-7.25,3.25-7.25,7.25s3.25,7.25,7.25,7.25,7.25-3.25,7.25-7.25-3.25-7.25-7.25-7.25Z" />
    <path fill="currentColor" d="M9.99,12.71c-.41,0-.75-.34-.75-.75,0-1.02.07-1.71,1.04-2.68.79-.79.92-1.1.92-1.65,0-.21-.07-1.26-1.37-1.26s-1.51,1.16-1.53,1.39c-.03.41-.39.72-.8.7-.41-.03-.73-.38-.7-.8.06-.96.78-2.79,3.02-2.79,1.89,0,2.87,1.39,2.87,2.76,0,1.14-.46,1.81-1.36,2.71-.58.58-.6.81-.6,1.62,0,.41-.34.75-.75.75Z" />
  </g>
</svg>
