<?xml version="1.0" encoding="UTF-8"?>
<svg width="20" height="20" viewBox="0 0 20 20" fill="none" xmlns="http://www.w3.org/2000/svg">
  <g id="S2IconShare20N-icon">
    <path fill="currentColor" d="M13.5273 5.49023L10.5249 2.49267C10.2319 2.20068 9.75782 2.20019 9.46485 2.49316L6.46729 5.49072C6.17432 5.78369 6.17432 6.2583 6.46729 6.55127C6.61377 6.69775 6.80567 6.771 6.99756 6.771C7.18945 6.771 7.38135 6.69776 7.52783 6.55127L9.25 4.8291V13.0103C9.25 13.4243 9.58594 13.7603 10 13.7603C10.4141 13.7603 10.75 13.4243 10.75 13.0103V4.83667L12.4678 6.55176C12.7607 6.84375 13.2353 6.84473 13.5283 6.55078C13.8208 6.25781 13.8208 5.78271 13.5273 5.49023Z"/>
    <path fill="currentColor" d="M15.75 18.021H4.25C3.00928 18.021 2 17.0117 2 15.771V10.021C2 9.60694 2.33594 9.271 2.75 9.271C3.16406 9.271 3.5 9.60694 3.5 10.021V15.771C3.5 16.1846 3.83643 16.521 4.25 16.521H15.75C16.1636 16.521 16.5 16.1846 16.5 15.771V10.021C16.5 9.60694 16.8359 9.271 17.25 9.271C17.6641 9.271 18 9.60694 18 10.021V15.771C18 17.0117 16.9907 18.021 15.75 18.021Z" />
  </g>
</svg>
