<svg width="20" height="20" viewBox="0 0 20 20" fill="none" xmlns="http://www.w3.org/2000/svg">
  <path fill="currentColor" d="M17.7808 1.75684C16.5088 0.715823 14.5537 0.858403 13.3306 2.08008L3.07764 12.334C2.75733 12.6533 2.51905 13.0508 2.38868 13.4844L1.0044 18.0684C0.924318 18.333 0.996588 18.6201 1.1919 18.8154C1.33448 18.958 1.52637 19.0352 1.72217 19.0352C1.79444 19.0352 1.86768 19.0244 1.93897 19.0029L6.52149 17.6191C6.95508 17.4893 7.35303 17.251 7.67237 16.9307C7.67237 16.9307 17.8408 6.76268 18.0278 6.57518C18.6758 5.92772 19.021 5.03026 18.9756 4.11522C18.9297 3.20018 18.4941 2.33985 17.7808 1.75684ZM2.84473 17.1631L3.82471 13.917C3.85187 13.8267 3.89185 13.7412 3.93848 13.6597L6.34717 16.0689C6.26563 16.1153 6.17999 16.1553 6.08936 16.1826L2.84473 17.1631ZM16.9663 5.51563C16.8116 5.67115 9.86646 12.6157 7.44086 15.0415L4.96625 12.5664L14.3911 3.14062C14.7773 2.7539 15.2871 2.55468 15.7808 2.55468C16.1616 2.55468 16.5332 2.67382 16.831 2.91698C17.2226 3.23827 17.4521 3.68944 17.477 4.18944C17.5019 4.6826 17.3159 5.16602 16.9663 5.51563Z"/>
</svg>
