<svg width="20" height="20" viewBox="0 0 20 20" fill="none" xmlns="http://www.w3.org/2000/svg">
<g clip-path="url(#clip0_353_270)">
<path d="M10.0586 11.9981C7.96972 11.9981 6.2705 10.2139 6.2705 8.02051C6.2705 5.82715 7.96972 4.04199 10.0586 4.04199C12.1475 4.04199 13.8467 5.82715 13.8467 8.02051C13.8467 10.2139 12.1475 11.9981 10.0586 11.9981ZM10.0586 5.542C8.79687 5.542 7.7705 6.6543 7.7705 8.02052C7.7705 9.38674 8.79687 10.4981 10.0586 10.4981C11.3203 10.4981 12.3467 9.38673 12.3467 8.02052C12.3467 6.65431 11.3203 5.542 10.0586 5.542Z" fill="currentColor"/>
<path d="M4.55322 17.9981C4.52636 17.9981 4.49902 17.9971 4.47168 17.9941C4.05957 17.9492 3.76221 17.5791 3.80664 17.167C4.08252 14.6211 6.77002 12.7002 10.0586 12.7002C13.3232 12.7002 16.0698 14.666 16.3115 17.1758C16.3511 17.5889 16.0493 17.9551 15.6367 17.9941C15.2217 18.0371 14.8584 17.7314 14.8184 17.3203C14.6528 15.5996 12.5176 14.2002 10.0586 14.2002C7.5791 14.2002 5.48779 15.5742 5.29785 17.3291C5.25635 17.7129 4.93115 17.9981 4.55322 17.9981Z" fill="currentColor"/>
<path d="M0.749511 14.9981C0.612791 14.9981 0.474121 14.9609 0.350101 14.8828C-0.000488549 14.6621 -0.105469 14.1983 0.115721 13.8477C0.971681 12.4902 2.55566 11.5362 4.46093 11.2334C4.87353 11.1621 5.25439 11.4463 5.31982 11.8555C5.38476 12.2647 5.10595 12.6494 4.69726 12.7139C3.23974 12.9463 2.00146 13.669 1.38427 14.6485C1.24169 14.874 0.998051 14.9981 0.749511 14.9981Z" fill="currentColor"/>
<path d="M4.18652 9.99805C4.13379 9.99805 4.08056 9.99219 4.02685 9.98047C2.27929 9.60156 1.01074 7.96289 1.01074 6.08594C1.01074 3.89258 2.70996 2.1084 4.79834 2.1084C5.48291 2.1084 6.15381 2.30176 6.73828 2.66797C7.08935 2.8877 7.1958 3.35059 6.97607 3.70215C6.75537 4.05274 6.29199 4.15723 5.94238 3.93945C5.59668 3.72265 5.20117 3.6084 4.79834 3.6084C3.53711 3.6084 2.51074 4.71973 2.51074 6.08594C2.51074 7.2627 3.28222 8.28418 4.34521 8.51563C4.75 8.60352 5.00683 9.00293 4.91894 9.40723C4.84277 9.75879 4.53173 9.99805 4.18652 9.99805Z" fill="currentColor"/>
<path d="M19.2505 14.9981C19.0015 14.9981 18.7583 14.874 18.6157 14.6485C17.9985 13.669 16.7602 12.9463 15.3027 12.7139C14.894 12.6494 14.6152 12.2647 14.6802 11.8555C14.7456 11.4463 15.1294 11.1631 15.5391 11.2334C17.4443 11.5361 19.0283 12.4902 19.8843 13.8477C20.1055 14.1983 20.0005 14.6621 19.6499 14.8828C19.5259 14.9609 19.3872 14.9981 19.2505 14.9981Z" fill="currentColor"/>
<path d="M15.8135 9.99805C15.4678 9.99805 15.1572 9.75879 15.0811 9.40723C14.9932 9.00293 15.25 8.60352 15.6548 8.51563C16.7178 8.28418 17.4893 7.2627 17.4893 6.08594C17.4893 4.71973 16.4629 3.6084 15.2017 3.6084C14.7988 3.6084 14.4033 3.72266 14.0576 3.93945C13.7085 4.15722 13.2441 4.05273 13.0239 3.70215C12.8042 3.35059 12.9107 2.8877 13.2617 2.66797C13.8462 2.30176 14.5171 2.1084 15.2017 2.1084C17.29 2.1084 18.9893 3.89258 18.9893 6.08594C18.9893 7.96289 17.7207 9.60156 15.9732 9.98047C15.9194 9.99219 15.8662 9.99805 15.8135 9.99805Z" fill="currentColor"/>
</g>
<defs>
<clipPath id="clip0_353_270">
<rect width="20" height="20" fill="white"/>
</clipPath>
</defs>
</svg>
